<?xml version="1.0" encoding="utf-8"?>
<!-- Generator: Adobe Illustrator 22.1.0, SVG Export Plug-In . SVG Version: 6.00 Build 0)  -->
<svg version="1.1" id="Layer_1" xmlns="http://www.w3.org/2000/svg" xmlns:xlink="http://www.w3.org/1999/xlink" x="0px" y="0px"
	 viewBox="0 0 69.5 90" style="enable-background:new 0 0 69.5 90;" xml:space="preserve">
<path d="M25,20c5.5,0,10-4.5,10-10S30.5,0,25,0S15,4.5,15,10S19.5,20,25,20z"/>
<polygon points="58.1,50 38.1,50 33.1,40 50,40 50,30 28.1,30 24.5,22.8 15.5,27.2 31.9,60 51.9,60 60.5,77.2 69.5,72.8 "/>
<path d="M40,65c0,8.3-6.7,15-15,15s-15-6.7-15-15c0-6.2,3.8-11.5,9.2-13.8L15.3,42C6.3,45.8,0,54.7,0,65c0,13.8,11.2,25,25,25
	s25-11.2,25-25H40z"/>
</svg>
