<!-- <svg id="415e8786-9217-47e5-b0e1-7f31378c1e95" data-name="Layer 1" xmlns="http://www.w3.org/2000/svg" viewBox="0 0 34.69 82"><title>unisex</title><circle cx="19.24" cy="7.13" r="7.13"/><path d="M26.37,16H14c-3.64.15-6,3.06-7.08,6.56,0,0-6.8,22.7-6.83,22.79a2.67,2.67,0,1,0,5.13,1.51L11.67,25h1.41L3.92,55.86h8.19V79a2.92,2.92,0,0,0,3.1,3c2.25,0,3.44-1.33,3.44-3V55.86H21V79a2.92,2.92,0,0,0,3.11,3c2.24,0,3.43-1.33,3.43-3V25.55h1.19V45.16a3,3,0,0,0,5.94,0V23.77C34.69,19.17,31,16,26.37,16Z"/></svg> -->
<svg id="14515052-10e1-44e7-993f-881ee1a2ff67" data-name="Layer 1" xmlns="http://www.w3.org/2000/svg" viewBox="0 0 110.35 82"><title>unisex</title><path d="M64.75,15.75H49.3A8.32,8.32,0,0,0,41,24.07V45.46a3,3,0,1,0,5.94,0V25.85h1.19V77.54h0c0,.1,0,.2,0,.3a3.87,3.87,0,0,0,7.73,0c0-.1,0-.2,0-.3h0V47.83h2.37V77.54h0c0,.1,0,.2,0,.3a3.87,3.87,0,0,0,7.73,0c0-.1,0-.2,0-.3h0V25.85h1.18V45.46a3,3,0,0,0,5.95,0V24.06A8.32,8.32,0,0,0,64.75,15.75Z"/><circle cx="57.03" cy="7.43" r="7.13"/><path d="M19,14.25h.36A7.13,7.13,0,0,0,19.37,0H19a7.13,7.13,0,0,0,0,14.24Z"/><path d="M31.44,22.61c-1.11-3.5-3.44-6.41-7.08-6.56H14c-3.64.15-6,3.06-7.08,6.56,0,0-6.8,22.7-6.83,22.79a2.67,2.67,0,1,0,5.13,1.51L11.67,25h1.41L3.92,55.86h8.32V79a3,3,0,0,0,5.94,0V55.86h2V79a3,3,0,1,0,5.94,0V55.86h8.32L25.3,25h1.42l6.43,21.95a2.67,2.67,0,0,0,5.13-1.51Z"/><circle cx="94.9" cy="7.13" r="7.13"/><path d="M102,16H89.69c-3.64.15-6,3.06-7.08,6.56L75.77,45.4a2.67,2.67,0,0,0,5.13,1.51L87.33,25h1.42l-9.16,30.9h8.18V79a2.92,2.92,0,0,0,3.11,3c2.24,0,3.43-1.33,3.43-3V55.86h2.38V79a2.91,2.91,0,0,0,3.1,3c2.24,0,3.43-1.33,3.43-3V25.55h1.19V45.16a3,3,0,1,0,5.94,0V23.77C110.35,19.17,106.63,16,102,16Z"/></svg>